<svg viewBox="0 0 118 118" xmlns="http://www.w3.org/2000/svg"><title>fractures</title><g transform="translate(.333 .333)" fill="none" fill-rule="evenodd"><circle stroke-width="16" stroke="#323255" stroke-linecap="round" stroke-linejoin="round" cx="58.67" cy="58.67" r="37.33"/><path d="M95.78 10.4c-1.76-2.6-1.5-6.15.8-8.44 2.58-2.6 6.8-2.58 9.4.03 1.6 1.5 2.22 3.7 1.9 5.8.02.2.1.9.46 1.2.47.4 1.42.5 1.42.5 2-.3 4.1.3 5.63 1.9 2.6 2.6 2.6 6.8 0 9.4-2.3 2.2-5.7 2.5-8.3.9-9.8 9.8-31.5 31.4-33.2 33.2-1.5 1.5-2.3 2.2-4.1.3-1.9-1.9 1-3.4.3-4.2-.8-.77-2.3 2.2-4.1.33-1.9-1.9 1.1-3.4.3-4.16-.8-.74-2.2 2.3-4.1.4-1.5-1.47-1.2-2.65.3-4.1 1.9-2 22.9-23 33.2-33.2zm-74.1 96.57c1.72 2.6 1.44 6.12-.85 8.4-2.6 2.6-6.83 2.6-9.44 0-1.6-1.54-2.2-3.65-1.9-5.66 0 0 0-.9-.5-1.4-.5-.4-1.4-.4-1.4-.4-2 .3-4.2-.3-5.7-1.9-2.6-2.6-2.6-6.8 0-9.4 2.3-2.2 5.8-2.5 8.4-.8l33.3-33.3c1.5-1.5 2.2-2.2 4.1-.3 1.9 1.9-1.1 3.4-.4 4.16.7.74 2.2-2.24 4.1-.37 1.9 1.9-1.1 3.4-.4 4.16.75.75 2.2-2.27 4.1-.38 1.46 1.46 1.13 2.64-.35 4.13-1.94 2-23 23-33.3 33.3z" fill="#E0E1EA"/></g></svg>
